<svg width="45" height="30" viewBox="0 0 45 30" fill="none" xmlns="http://www.w3.org/2000/svg">
<g clip-path="url(#clip0_402_24)">
<path d="M45 29.2051C43.3632 29.6833 42.351 29.2257 41.4429 27.659C39.4042 24.1506 37.1536 20.8029 34.9821 17.3934C34.7021 16.9523 34.4113 16.5194 34.0488 15.9711C31.4788 19.9536 28.9124 23.7466 26.5039 27.692C25.6425 29.102 24.738 29.7163 23.1299 29.2174L32.7925 14.322L23.7976 0.869519C25.3446 0.523209 26.4142 0.700487 27.3618 2.29186C29.4544 5.80443 31.7624 9.14797 34.0632 12.6853C36.3783 9.16033 38.6576 5.81268 40.8112 2.33309C41.6762 0.923114 42.6059 0.387159 44.1601 0.906624C42.9828 2.70001 41.8306 4.46454 40.6712 6.2167C39.1062 8.57903 37.57 10.9702 35.9476 13.2831C35.3697 14.1076 35.463 14.6436 35.9799 15.4228C38.9806 19.9537 41.9454 24.5299 45 29.2051ZM0.0107682 14.0746C0.269203 12.5863 0.441493 11.0692 0.800431 9.60971C2.95406 0.774696 11.7839 -2.89866 17.85 2.57633C21.4034 5.78794 22.2864 10.3147 22.1106 15.4186H2.08184C1.78033 24.5752 7.51974 30.1038 14.8349 27.2839C17.4013 26.2944 18.9124 23.9857 19.6698 21.0998C20.0538 19.6527 20.6892 19.4259 21.8737 19.8382C21.2671 23.4497 19.8923 26.4676 17.0208 28.3558C12.7136 31.184 6.56497 30.2687 3.33094 26.3398C1.42139 24.031 0.610194 21.1575 0.251256 18.0531C0.197416 17.5583 0.086145 17.0719 0 16.5813C0.00717875 15.7457 0.0107682 14.9102 0.0107682 14.0746ZM2.11773 13.4603H20.219C20.1005 6.83924 16.5111 2.1352 11.6045 2.09397C6.22039 2.0445 2.35104 6.63722 2.11773 13.4603Z" fill="white"/>
</g>
<defs>
<clipPath id="clip0_402_24">
<rect width="45" height="30" fill="white"/>
</clipPath>
</defs>
</svg>
