<svg width="48" height="48" viewBox="0 0 48 48" fill="none" xmlns="http://www.w3.org/2000/svg">
<g clip-path="url(#clip0_412_5)">
<rect width="48" height="48" rx="24" fill="#0B2849"/>
<g filter="url(#filter0_f_412_5)">
<path d="M39.3663 24.0879C11.3741 26.857 24.1633 7.34512 22.8429 -6.00318C21.5224 -19.3515 0.554962 -16.7476 28.5472 -19.5167C56.5394 -22.2859 53.928 -17.2619 55.2485 -3.91361C56.569 9.43469 59.7482 9.26292 39.3663 24.0879Z" fill="#309DC8" fill-opacity="0.92"/>
</g>
<g filter="url(#filter1_f_412_5)">
<rect x="-18" y="18" width="47" height="39" fill="#070E16"/>
</g>
<g filter="url(#filter2_di_412_5)">
<path d="M19.2828 33.42L20.2728 30.736L8.28281 25.346V22.2L18.4028 17.602V20.594L12.3308 23.256C12.0375 23.388 11.7295 23.498 11.4068 23.586C11.0841 23.674 10.8275 23.7327 10.6368 23.762C10.8275 23.7913 11.0841 23.85 11.4068 23.938C11.7295 24.0113 12.0375 24.114 12.3308 24.246L21.2188 28.162L26.8728 12.74H30.2828L28.8968 16.48L41.2828 22.178V25.324L31.1628 29.922V26.93L37.2348 24.268C37.5281 24.136 37.8361 24.026 38.1588 23.938C38.4815 23.85 38.7381 23.7913 38.9288 23.762C38.7381 23.7327 38.4815 23.6813 38.1588 23.608C37.8361 23.52 37.5281 23.41 37.2348 23.278L27.9508 19.076L22.6928 33.42H19.2828Z" fill="#EEF4ED"/>
</g>
</g>
<defs>
<filter id="filter0_f_412_5" x="-9.93506" y="-44.252" width="90.1904" height="92.605" filterUnits="userSpaceOnUse" color-interpolation-filters="sRGB">
<feFlood flood-opacity="0" result="BackgroundImageFix"/>
<feBlend mode="normal" in="SourceGraphic" in2="BackgroundImageFix" result="shape"/>
<feGaussianBlur stdDeviation="12" result="effect1_foregroundBlur_412_5"/>
</filter>
<filter id="filter1_f_412_5" x="-44.5" y="-8.5" width="100" height="92" filterUnits="userSpaceOnUse" color-interpolation-filters="sRGB">
<feFlood flood-opacity="0" result="BackgroundImageFix"/>
<feBlend mode="normal" in="SourceGraphic" in2="BackgroundImageFix" result="shape"/>
<feGaussianBlur stdDeviation="13.25" result="effect1_foregroundBlur_412_5"/>
</filter>
<filter id="filter2_di_412_5" x="4.28271" y="10.7402" width="41" height="28.6797" filterUnits="userSpaceOnUse" color-interpolation-filters="sRGB">
<feFlood flood-opacity="0" result="BackgroundImageFix"/>
<feColorMatrix in="SourceAlpha" type="matrix" values="0 0 0 0 0 0 0 0 0 0 0 0 0 0 0 0 0 0 127 0" result="hardAlpha"/>
<feOffset dy="2"/>
<feGaussianBlur stdDeviation="2"/>
<feComposite in2="hardAlpha" operator="out"/>
<feColorMatrix type="matrix" values="0 0 0 0 0.785147 0 0 0 0 0.852531 0 0 0 0 0.88141 0 0 0 0.25 0"/>
<feBlend mode="normal" in2="BackgroundImageFix" result="effect1_dropShadow_412_5"/>
<feBlend mode="normal" in="SourceGraphic" in2="effect1_dropShadow_412_5" result="shape"/>
<feColorMatrix in="SourceAlpha" type="matrix" values="0 0 0 0 0 0 0 0 0 0 0 0 0 0 0 0 0 0 127 0" result="hardAlpha"/>
<feOffset dx="-1" dy="1"/>
<feGaussianBlur stdDeviation="0.65"/>
<feComposite in2="hardAlpha" operator="arithmetic" k2="-1" k3="1"/>
<feColorMatrix type="matrix" values="0 0 0 0 0 0 0 0 0 0 0 0 0 0 0 0 0 0 0.45 0"/>
<feBlend mode="normal" in2="shape" result="effect2_innerShadow_412_5"/>
</filter>
<clipPath id="clip0_412_5">
<rect width="48" height="48" rx="24" fill="white"/>
</clipPath>
</defs>
</svg>
